<svg width="16" height="16" viewBox="0 0 16 16" fill="none" xmlns="http://www.w3.org/2000/svg">
<path d="M14.5 8.75004H2.5V3.12504C2.49942 2.91321 2.54087 2.70336 2.62194 2.50766C2.703 2.31195 2.82208 2.13426 2.97228 1.98488L2.98478 1.97238C3.22017 1.73733 3.5224 1.58069 3.85016 1.52385C4.17792 1.46701 4.51524 1.51275 4.81603 1.65482C4.53196 2.12713 4.41389 2.68083 4.48057 3.22794C4.54726 3.77505 4.79488 4.28417 5.18409 4.67442L5.52631 5.01663L4.89641 5.64657L5.60347 6.35363L6.23338 5.72373L9.72366 2.23351L10.3536 1.6036L9.64647 0.896509L9.01653 1.52642L8.67431 1.1842C8.26458 0.775612 7.72448 0.523746 7.14812 0.472488C6.57176 0.42123 5.99568 0.57383 5.52028 0.903697C5.01897 0.587107 4.4249 0.450433 3.83564 0.516127C3.24638 0.581821 2.69699 0.845975 2.27772 1.2652L2.26522 1.2777C2.02185 1.51972 1.82891 1.80762 1.69756 2.12472C1.56621 2.44181 1.49906 2.78182 1.5 3.12504V8.75004H0.5V9.75004H1.5V10.7094C1.50001 10.79 1.51301 10.8701 1.5385 10.9466L2.46875 13.7372C2.5184 13.8866 2.61386 14.0166 2.74157 14.1086C2.86928 14.2007 3.02275 14.2502 3.18019 14.25H3.58331L3.21875 15.5H4.26041L4.625 14.25H11.1281L11.5031 15.5H12.5469L12.1719 14.25H12.8197C12.9771 14.2502 13.1306 14.2007 13.2584 14.1087C13.3861 14.0166 13.4816 13.8866 13.5312 13.7372L14.4614 10.9466C14.487 10.8701 14.5 10.79 14.5 10.7094V9.75004H15.5V8.75004H14.5ZM5.89125 1.89129C6.16675 1.61639 6.54004 1.462 6.92923 1.462C7.31842 1.462 7.69172 1.61639 7.96722 1.89129L8.30937 2.23351L6.23347 4.30942L5.89125 3.96726C5.61637 3.69175 5.46199 3.31846 5.46199 2.92927C5.46199 2.54009 5.61637 2.1668 5.89125 1.89129ZM13.5 10.6688L12.6396 13.25H3.36037L2.5 10.6688V9.75004H13.5V10.6688Z" fill="white" fill-opacity="0.8"/>
</svg>
