<svg width="18" height="11" viewBox="0 0 18 11" fill="none" xmlns="http://www.w3.org/2000/svg">
<path d="M0 10.5V6C0 5.704 0.0853334 5.38867 0.256 5.054C0.426667 4.71933 0.674667 4.468 1 4.3V2C1 1.436 1.19233 0.961667 1.577 0.577C1.96167 0.192333 2.436 0 3 0H7.5C7.84467 0 8.139 0.0709998 8.383 0.213C8.62633 0.354333 8.832 0.55 9 0.8C9.168 0.55 9.37367 0.354333 9.617 0.213C9.861 0.0709998 10.1553 0 10.5 0H15C15.564 0 16.0383 0.192333 16.423 0.577C16.8077 0.961667 17 1.436 17 2V4.3C17.326 4.468 17.574 4.71933 17.744 5.054C17.9147 5.38867 18 5.704 18 6V10.5C18 10.642 17.952 10.7607 17.856 10.856C17.76 10.9513 17.641 10.9993 17.499 11C17.357 11.0007 17.2383 10.9527 17.143 10.856C17.0477 10.7593 17 10.6407 17 10.5V9H1V10.5C1 10.642 0.952 10.7607 0.856 10.856C0.76 10.9513 0.641 10.9993 0.499 11C0.357 11.0007 0.238333 10.9527 0.143 10.856C0.0476666 10.7593 0 10.6407 0 10.5ZM9.5 4H16V2C16 1.71667 15.904 1.47933 15.712 1.288C15.52 1.09667 15.2827 1.00067 15 1H10.5C10.2167 1 9.97933 1.096 9.788 1.288C9.59667 1.48 9.50067 1.71733 9.5 2V4ZM2 4H8.5V2C8.5 1.71667 8.404 1.47933 8.212 1.288C8.02 1.09667 7.78267 1.00067 7.5 1H3C2.71667 1 2.47933 1.096 2.288 1.288C2.09667 1.48 2.00067 1.71733 2 2V4ZM1 8H17V6C17 5.71667 16.904 5.47933 16.712 5.288C16.52 5.09667 16.2827 5.00067 16 5H2C1.71667 5 1.47933 5.096 1.288 5.288C1.09667 5.48 1.00067 5.71733 1 6V8Z" fill="white" fill-opacity="0.8"/>
</svg>
